<svg id="visual" viewBox="0 0 900 600" width="900" height="600" xmlns="http://www.w3.org/2000/svg" xmlns:xlink="http://www.w3.org/1999/xlink" version="1.1"><rect x="0" y="0" width="900" height="600" fill="#053d68"></rect><path d="M0 299L13.7 300C27.3 301 54.7 303 82 311.2C109.3 319.3 136.7 333.7 163.8 336.5C191 339.3 218 330.7 245.2 337.2C272.3 343.7 299.7 365.3 327 373.7C354.3 382 381.7 377 409 369.3C436.3 361.7 463.7 351.3 491 348.2C518.3 345 545.7 349 573 344.7C600.3 340.3 627.7 327.7 654.8 330.2C682 332.7 709 350.3 736.2 355.2C763.3 360 790.7 352 818 342.7C845.3 333.3 872.7 322.7 886.3 317.3L900 312L900 601L886.3 601C872.7 601 845.3 601 818 601C790.7 601 763.3 601 736.2 601C709 601 682 601 654.8 601C627.7 601 600.3 601 573 601C545.7 601 518.3 601 491 601C463.7 601 436.3 601 409 601C381.7 601 354.3 601 327 601C299.7 601 272.3 601 245.2 601C218 601 191 601 163.8 601C136.7 601 109.3 601 82 601C54.7 601 27.3 601 13.7 601L0 601Z" fill="#4facf7"></path><path d="M0 338L13.7 349.3C27.3 360.7 54.7 383.3 82 393.7C109.3 404 136.7 402 163.8 391.8C191 381.7 218 363.3 245.2 360.2C272.3 357 299.7 369 327 369.3C354.3 369.7 381.7 358.3 409 363.7C436.3 369 463.7 391 491 390.5C518.3 390 545.7 367 573 367C600.3 367 627.7 390 654.8 400.3C682 410.7 709 408.3 736.2 398.8C763.3 389.3 790.7 372.7 818 363.8C845.3 355 872.7 354 886.3 353.5L900 353L900 601L886.3 601C872.7 601 845.3 601 818 601C790.7 601 763.3 601 736.2 601C709 601 682 601 654.8 601C627.7 601 600.3 601 573 601C545.7 601 518.3 601 491 601C463.7 601 436.3 601 409 601C381.7 601 354.3 601 327 601C299.7 601 272.3 601 245.2 601C218 601 191 601 163.8 601C136.7 601 109.3 601 82 601C54.7 601 27.3 601 13.7 601L0 601Z" fill="#259bfd"></path><path d="M0 385L13.7 387.2C27.3 389.3 54.7 393.7 82 403.2C109.3 412.7 136.7 427.3 163.8 432C191 436.7 218 431.3 245.2 424.3C272.3 417.3 299.7 408.7 327 405.5C354.3 402.3 381.7 404.7 409 401.5C436.3 398.3 463.7 389.7 491 388.3C518.3 387 545.7 393 573 396.8C600.3 400.7 627.7 402.3 654.8 406.7C682 411 709 418 736.2 421C763.3 424 790.7 423 818 419.7C845.3 416.3 872.7 410.7 886.3 407.8L900 405L900 601L886.3 601C872.7 601 845.3 601 818 601C790.7 601 763.3 601 736.2 601C709 601 682 601 654.8 601C627.7 601 600.3 601 573 601C545.7 601 518.3 601 491 601C463.7 601 436.3 601 409 601C381.7 601 354.3 601 327 601C299.7 601 272.3 601 245.2 601C218 601 191 601 163.8 601C136.7 601 109.3 601 82 601C54.7 601 27.3 601 13.7 601L0 601Z" fill="#0089ff"></path><path d="M0 478L13.7 474.3C27.3 470.7 54.7 463.3 82 457.7C109.3 452 136.7 448 163.8 450.3C191 452.7 218 461.3 245.2 458.5C272.3 455.7 299.7 441.3 327 434.3C354.3 427.3 381.7 427.7 409 427C436.3 426.3 463.7 424.7 491 427.7C518.3 430.7 545.7 438.3 573 441.2C600.3 444 627.7 442 654.8 436C682 430 709 420 736.2 422C763.3 424 790.7 438 818 440C845.3 442 872.7 432 886.3 427L900 422L900 601L886.3 601C872.7 601 845.3 601 818 601C790.7 601 763.3 601 736.2 601C709 601 682 601 654.8 601C627.7 601 600.3 601 573 601C545.7 601 518.3 601 491 601C463.7 601 436.3 601 409 601C381.7 601 354.3 601 327 601C299.7 601 272.3 601 245.2 601C218 601 191 601 163.8 601C136.7 601 109.3 601 82 601C54.7 601 27.3 601 13.7 601L0 601Z" fill="#0075ff"></path><path d="M0 461L13.7 468.2C27.3 475.3 54.7 489.7 82 491.2C109.3 492.7 136.7 481.3 163.8 473.7C191 466 218 462 245.2 466C272.3 470 299.7 482 327 481.3C354.3 480.7 381.7 467.3 409 462.3C436.3 457.3 463.7 460.7 491 461.5C518.3 462.3 545.7 460.7 573 462.7C600.3 464.7 627.7 470.3 654.8 477.3C682 484.3 709 492.7 736.2 493.2C763.3 493.7 790.7 486.3 818 478C845.3 469.7 872.7 460.3 886.3 455.7L900 451L900 601L886.3 601C872.7 601 845.3 601 818 601C790.7 601 763.3 601 736.2 601C709 601 682 601 654.8 601C627.7 601 600.3 601 573 601C545.7 601 518.3 601 491 601C463.7 601 436.3 601 409 601C381.7 601 354.3 601 327 601C299.7 601 272.3 601 245.2 601C218 601 191 601 163.8 601C136.7 601 109.3 601 82 601C54.7 601 27.3 601 13.7 601L0 601Z" fill="#005dff"></path><path d="M0 524L13.7 525.8C27.3 527.7 54.7 531.3 82 534.2C109.3 537 136.7 539 163.8 538.8C191 538.7 218 536.3 245.2 531C272.3 525.7 299.7 517.3 327 513.5C354.3 509.7 381.7 510.3 409 512.8C436.3 515.3 463.7 519.7 491 519.8C518.3 520 545.7 516 573 511.2C600.3 506.3 627.7 500.7 654.8 504.7C682 508.7 709 522.3 736.2 527.8C763.3 533.3 790.7 530.7 818 525C845.3 519.3 872.7 510.7 886.3 506.3L900 502L900 601L886.3 601C872.7 601 845.3 601 818 601C790.7 601 763.3 601 736.2 601C709 601 682 601 654.8 601C627.7 601 600.3 601 573 601C545.7 601 518.3 601 491 601C463.7 601 436.3 601 409 601C381.7 601 354.3 601 327 601C299.7 601 272.3 601 245.2 601C218 601 191 601 163.8 601C136.7 601 109.3 601 82 601C54.7 601 27.3 601 13.7 601L0 601Z" fill="#0040ff"></path><path d="M0 555L13.7 555.5C27.3 556 54.7 557 82 556C109.3 555 136.7 552 163.8 547.7C191 543.3 218 537.7 245.2 540.7C272.3 543.7 299.7 555.3 327 557.3C354.3 559.3 381.7 551.7 409 552.2C436.3 552.7 463.7 561.3 491 560.7C518.3 560 545.7 550 573 549.2C600.3 548.3 627.7 556.7 654.8 558.3C682 560 709 555 736.2 554.8C763.3 554.7 790.7 559.3 818 561.3C845.3 563.3 872.7 562.7 886.3 562.3L900 562L900 601L886.3 601C872.7 601 845.3 601 818 601C790.7 601 763.3 601 736.2 601C709 601 682 601 654.8 601C627.7 601 600.3 601 573 601C545.7 601 518.3 601 491 601C463.7 601 436.3 601 409 601C381.7 601 354.3 601 327 601C299.7 601 272.3 601 245.2 601C218 601 191 601 163.8 601C136.7 601 109.3 601 82 601C54.7 601 27.3 601 13.7 601L0 601Z" fill="#2300ff"></path></svg>