<svg id="visual" viewBox="0 0 900 600" width="900" height="600" xmlns="http://www.w3.org/2000/svg" xmlns:xlink="http://www.w3.org/1999/xlink" version="1.1"><path d="M0 157L13.7 147C27.3 137 54.7 117 82 110C109.3 103 136.7 109 163.8 117C191 125 218 135 245.2 131C272.3 127 299.7 109 327 95C354.3 81 381.7 71 409 83C436.3 95 463.7 129 491 128C518.3 127 545.7 91 573 74C600.3 57 627.7 59 654.8 67C682 75 709 89 736.2 99C763.3 109 790.7 115 818 109C845.3 103 872.7 85 886.3 76L900 67L900 0L886.3 0C872.7 0 845.3 0 818 0C790.7 0 763.3 0 736.2 0C709 0 682 0 654.8 0C627.7 0 600.3 0 573 0C545.7 0 518.3 0 491 0C463.7 0 436.3 0 409 0C381.7 0 354.3 0 327 0C299.7 0 272.3 0 245.2 0C218 0 191 0 163.8 0C136.7 0 109.3 0 82 0C54.7 0 27.3 0 13.7 0L0 0Z" fill="#6198ff"></path><path d="M0 253L13.7 264C27.3 275 54.7 297 82 293C109.3 289 136.7 259 163.8 261C191 263 218 297 245.2 291C272.3 285 299.7 239 327 243C354.3 247 381.7 301 409 313C436.3 325 463.7 295 491 275C518.3 255 545.7 245 573 257C600.3 269 627.7 303 654.8 298C682 293 709 249 736.2 248C763.3 247 790.7 289 818 309C845.3 329 872.7 327 886.3 326L900 325L900 65L886.3 74C872.7 83 845.3 101 818 107C790.7 113 763.3 107 736.2 97C709 87 682 73 654.8 65C627.7 57 600.3 55 573 72C545.7 89 518.3 125 491 126C463.7 127 436.3 93 409 81C381.7 69 354.3 79 327 93C299.7 107 272.3 125 245.2 129C218 133 191 123 163.8 115C136.7 107 109.3 101 82 108C54.7 115 27.3 135 13.7 145L0 155Z" fill="#3c80ff"></path><path d="M0 301L13.7 320C27.3 339 54.7 377 82 374C109.3 371 136.7 327 163.8 323C191 319 218 355 245.2 358C272.3 361 299.7 331 327 332C354.3 333 381.7 365 409 366C436.3 367 463.7 337 491 329C518.3 321 545.7 335 573 356C600.3 377 627.7 405 654.8 396C682 387 709 341 736.2 337C763.3 333 790.7 371 818 383C845.3 395 872.7 381 886.3 374L900 367L900 323L886.3 324C872.7 325 845.3 327 818 307C790.7 287 763.3 245 736.2 246C709 247 682 291 654.8 296C627.7 301 600.3 267 573 255C545.7 243 518.3 253 491 273C463.7 293 436.3 323 409 311C381.7 299 354.3 245 327 241C299.7 237 272.3 283 245.2 289C218 295 191 261 163.8 259C136.7 257 109.3 287 82 291C54.7 295 27.3 273 13.7 262L0 251Z" fill="#0066ff"></path><path d="M0 379L13.7 395C27.3 411 54.7 443 82 443C109.3 443 136.7 411 163.8 406C191 401 218 423 245.2 425C272.3 427 299.7 409 327 412C354.3 415 381.7 439 409 442C436.3 445 463.7 427 491 422C518.3 417 545.7 425 573 440C600.3 455 627.7 477 654.8 468C682 459 709 419 736.2 419C763.3 419 790.7 459 818 465C845.3 471 872.7 443 886.3 429L900 415L900 365L886.3 372C872.7 379 845.3 393 818 381C790.7 369 763.3 331 736.2 335C709 339 682 385 654.8 394C627.7 403 600.3 375 573 354C545.7 333 518.3 319 491 327C463.7 335 436.3 365 409 364C381.7 363 354.3 331 327 330C299.7 329 272.3 359 245.2 356C218 353 191 317 163.8 321C136.7 325 109.3 369 82 372C54.7 375 27.3 337 13.7 318L0 299Z" fill="#0059dd"></path><path d="M0 601L13.7 601C27.3 601 54.7 601 82 601C109.3 601 136.7 601 163.8 601C191 601 218 601 245.2 601C272.3 601 299.7 601 327 601C354.3 601 381.7 601 409 601C436.3 601 463.7 601 491 601C518.3 601 545.7 601 573 601C600.3 601 627.7 601 654.8 601C682 601 709 601 736.2 601C763.3 601 790.7 601 818 601C845.3 601 872.7 601 886.3 601L900 601L900 413L886.3 427C872.7 441 845.3 469 818 463C790.7 457 763.3 417 736.2 417C709 417 682 457 654.8 466C627.7 475 600.3 453 573 438C545.7 423 518.3 415 491 420C463.7 425 436.3 443 409 440C381.7 437 354.3 413 327 410C299.7 407 272.3 425 245.2 423C218 421 191 399 163.8 404C136.7 409 109.3 441 82 441C54.7 441 27.3 409 13.7 393L0 377Z" fill="#004cbb"></path></svg>